# xmcd CD database file
#
# Track frame offsets:
#	150
#	9303
#	27753
#	45816
#	60909
#	78365
#	93615
#	110073
#	123831
#	144675
#	165139
#	181615
#	201823
#	228855
#
# Disc length: 3145 seconds
#
# Revision: 0
# Processed by: cddbd v1.4b42PL0 Copyright (c) Steve Scherf et al.
# Submitted via: CDex 1.40Beta5
#
DISCID=990c470e
DTITLE=Various Artist - Texas Blues Radio - Volume 2
DYEAR=1900
DGENRE=Blues
TTITLE0=Shaken Vodka Martini-Jake Crawford
TTITLE1=When I Start to Trippin'-Randy McAllister
TTITLE2=Sumter's Contribution to Bop-Burton and Price
TTITLE3=Back to Playing the Blues-Cookie McGee
TTITLE4=I Told You So-Kenny Kay and Storm Warning
TTITLE5=Hangin' On - Joe Jonas
TTITLE6=Walkin'-Dru Webber
TTITLE7=Lucky Charm-James Hinkle
TTITLE8=Low Down-Greg Smith
TTITLE9=Doncha' Hang Around My Door-Jim Suhler and Monkey Beat
TTITLE10=I Gotta Leave-Mike Morgan and The Crawl featuring Lee McBee
TTITLE11=Longwallin'-Pat Boyak and the Prowlers
TTITLE12=Can I Talk to You-R.L. Griffin
TTITLE13=Mud Buggin-Joey Love and Blues Xpress
EXTD=ID3G:   0
EXTT0=
EXTT1=
EXTT2=
EXTT3=
EXTT4=
EXTT5=
EXTT6=
EXTT7=
EXTT8=
EXTT9=
EXTT10=
EXTT11=
EXTT12=
EXTT13=
PLAYORDER=
